<svg xmlns="http://www.w3.org/2000/svg" viewBox="0 0 25 25"><path fill="#0b64d0" d="M10 0h1v1h-1zM11 0h1v1h-1zM12 0h1v1h-1zM13 0h1v1h-1zM14 0h1v1h-1zM7 1h1v1h-1zM8 1h1v1h-1zM9 1h1v1h-1zM10 1h1v1h-1zM11 1h1v1h-1zM12 1h1v1h-1zM13 1h1v1h-1zM14 1h1v1h-1zM15 1h1v1h-1zM16 1h1v1h-1zM17 1h1v1h-1zM5 2h1v1h-1zM6 2h1v1h-1zM7 2h1v1h-1zM8 2h1v1h-1zM9 2h1v1h-1zM10 2h1v1h-1zM11 2h1v1h-1zM12 2h1v1h-1zM13 2h1v1h-1zM14 2h1v1h-1zM15 2h1v1h-1zM16 2h1v1h-1zM17 2h1v1h-1zM18 2h1v1h-1zM19 2h1v1h-1zM4 3h1v1h-1zM5 3h1v1h-1zM6 3h1v1h-1zM7 3h1v1h-1zM17 3h1v1h-1zM18 3h1v1h-1zM19 3h1v1h-1zM20 3h1v1h-1zM3 4h1v1h-1zM4 4h1v1h-1zM5 4h1v1h-1zM6 4h1v1h-1zM18 4h1v1h-1zM19 4h1v1h-1zM20 4h1v1h-1zM21 4h1v1h-1zM2 5h1v1h-1zM3 5h1v1h-1zM4 5h1v1h-1zM20 5h1v1h-1zM21 5h1v1h-1zM22 5h1v1h-1zM2 6h1v1h-1zM3 6h1v1h-1zM4 6h1v1h-1zM20 6h1v1h-1zM21 6h1v1h-1zM22 6h1v1h-1zM1 7h1v1h-1zM2 7h1v1h-1zM3 7h1v1h-1zM21 7h1v1h-1zM22 7h1v1h-1zM23 7h1v1h-1zM1 8h1v1h-1zM2 8h1v1h-1zM22 8h1v1h-1zM23 8h1v1h-1zM1 9h1v1h-1zM2 9h1v1h-1zM22 9h1v1h-1zM23 9h1v1h-1zM0 10h1v1h-1zM1 10h1v1h-1zM2 10h1v1h-1zM22 10h1v1h-1zM23 10h1v1h-1zM24 10h1v1h-1zM0 11h1v1h-1zM1 11h1v1h-1zM2 11h1v1h-1zM22 11h1v1h-1zM23 11h1v1h-1zM24 11h1v1h-1zM0 12h1v1h-1zM1 12h1v1h-1zM2 12h1v1h-1zM22 12h1v1h-1zM23 12h1v1h-1zM24 12h1v1h-1zM0 13h1v1h-1zM1 13h1v1h-1zM2 13h1v1h-1zM22 13h1v1h-1zM23 13h1v1h-1zM24 13h1v1h-1zM0 14h1v1h-1zM1 14h1v1h-1zM2 14h1v1h-1zM22 14h1v1h-1zM23 14h1v1h-1zM24 14h1v1h-1zM1 15h1v1h-1zM2 15h1v1h-1zM22 15h1v1h-1zM23 15h1v1h-1zM1 16h1v1h-1zM2 16h1v1h-1zM22 16h1v1h-1zM23 16h1v1h-1zM1 17h1v1h-1zM2 17h1v1h-1zM3 17h1v1h-1zM21 17h1v1h-1zM22 17h1v1h-1zM23 17h1v1h-1zM2 18h1v1h-1zM3 18h1v1h-1zM4 18h1v1h-1zM20 18h1v1h-1zM21 18h1v1h-1zM22 18h1v1h-1zM2 19h1v1h-1zM3 19h1v1h-1zM4 19h1v1h-1zM20 19h1v1h-1zM21 19h1v1h-1zM22 19h1v1h-1zM3 20h1v1h-1zM4 20h1v1h-1zM5 20h1v1h-1zM6 20h1v1h-1zM18 20h1v1h-1zM19 20h1v1h-1zM20 20h1v1h-1zM21 20h1v1h-1zM4 21h1v1h-1zM5 21h1v1h-1zM6 21h1v1h-1zM7 21h1v1h-1zM17 21h1v1h-1zM18 21h1v1h-1zM19 21h1v1h-1zM20 21h1v1h-1zM5 22h1v1h-1zM6 22h1v1h-1zM7 22h1v1h-1zM8 22h1v1h-1zM9 22h1v1h-1zM10 22h1v1h-1zM11 22h1v1h-1zM12 22h1v1h-1zM13 22h1v1h-1zM14 22h1v1h-1zM15 22h1v1h-1zM16 22h1v1h-1zM17 22h1v1h-1zM18 22h1v1h-1zM19 22h1v1h-1zM7 23h1v1h-1zM8 23h1v1h-1zM9 23h1v1h-1zM10 23h1v1h-1zM11 23h1v1h-1zM12 23h1v1h-1zM13 23h1v1h-1zM14 23h1v1h-1zM15 23h1v1h-1zM16 23h1v1h-1zM17 23h1v1h-1zM10 24h1v1h-1zM11 24h1v1h-1zM12 24h1v1h-1zM13 24h1v1h-1zM14 24h1v1h-1z"/><path fill="rgb(60,131,217)" d="M10.2 0.5a.3.3 0 1 0 .6 0a.3.3 0 1 0-.6 0zM11.2 0.5a.3.3 0 1 0 .6 0a.3.3 0 1 0-.6 0zM12.2 0.5a.3.3 0 1 0 .6 0a.3.3 0 1 0-.6 0zM13.2 0.5a.3.3 0 1 0 .6 0a.3.3 0 1 0-.6 0zM14.2 0.5a.3.3 0 1 0 .6 0a.3.3 0 1 0-.6 0zM7.2 1.5a.3.3 0 1 0 .6 0a.3.3 0 1 0-.6 0zM8.2 1.5a.3.3 0 1 0 .6 0a.3.3 0 1 0-.6 0zM9.2 1.5a.3.3 0 1 0 .6 0a.3.3 0 1 0-.6 0zM10.2 1.5a.3.3 0 1 0 .6 0a.3.3 0 1 0-.6 0zM11.2 1.5a.3.3 0 1 0 .6 0a.3.3 0 1 0-.6 0zM12.2 1.5a.3.3 0 1 0 .6 0a.3.3 0 1 0-.6 0zM13.2 1.5a.3.3 0 1 0 .6 0a.3.3 0 1 0-.6 0zM14.2 1.5a.3.3 0 1 0 .6 0a.3.3 0 1 0-.6 0zM15.2 1.5a.3.3 0 1 0 .6 0a.3.3 0 1 0-.6 0zM16.2 1.5a.3.3 0 1 0 .6 0a.3.3 0 1 0-.6 0zM17.2 1.5a.3.3 0 1 0 .6 0a.3.3 0 1 0-.6 0zM5.2 2.5a.3.3 0 1 0 .6 0a.3.3 0 1 0-.6 0zM6.2 2.5a.3.3 0 1 0 .6 0a.3.3 0 1 0-.6 0zM7.2 2.5a.3.3 0 1 0 .6 0a.3.3 0 1 0-.6 0zM8.2 2.5a.3.3 0 1 0 .6 0a.3.3 0 1 0-.6 0zM9.2 2.5a.3.3 0 1 0 .6 0a.3.3 0 1 0-.6 0zM10.2 2.5a.3.3 0 1 0 .6 0a.3.3 0 1 0-.6 0zM11.2 2.5a.3.3 0 1 0 .6 0a.3.3 0 1 0-.6 0zM12.2 2.5a.3.3 0 1 0 .6 0a.3.3 0 1 0-.6 0zM13.2 2.5a.3.3 0 1 0 .6 0a.3.3 0 1 0-.6 0zM14.2 2.5a.3.3 0 1 0 .6 0a.3.3 0 1 0-.6 0zM15.2 2.5a.3.3 0 1 0 .6 0a.3.3 0 1 0-.6 0zM16.2 2.5a.3.3 0 1 0 .6 0a.3.3 0 1 0-.6 0zM17.2 2.5a.3.3 0 1 0 .6 0a.3.3 0 1 0-.6 0zM18.2 2.5a.3.3 0 1 0 .6 0a.3.3 0 1 0-.6 0zM19.2 2.5a.3.3 0 1 0 .6 0a.3.3 0 1 0-.6 0zM4.2 3.5a.3.3 0 1 0 .6 0a.3.3 0 1 0-.6 0zM5.2 3.5a.3.3 0 1 0 .6 0a.3.3 0 1 0-.6 0zM6.2 3.5a.3.3 0 1 0 .6 0a.3.3 0 1 0-.6 0zM7.2 3.5a.3.3 0 1 0 .6 0a.3.3 0 1 0-.6 0zM17.2 3.5a.3.3 0 1 0 .6 0a.3.3 0 1 0-.6 0zM18.2 3.5a.3.3 0 1 0 .6 0a.3.3 0 1 0-.6 0zM19.2 3.5a.3.3 0 1 0 .6 0a.3.3 0 1 0-.6 0zM20.2 3.5a.3.3 0 1 0 .6 0a.3.3 0 1 0-.6 0zM3.2 4.5a.3.3 0 1 0 .6 0a.3.3 0 1 0-.6 0zM4.2 4.5a.3.3 0 1 0 .6 0a.3.3 0 1 0-.6 0zM5.2 4.5a.3.3 0 1 0 .6 0a.3.3 0 1 0-.6 0zM6.2 4.5a.3.3 0 1 0 .6 0a.3.3 0 1 0-.6 0zM18.2 4.5a.3.3 0 1 0 .6 0a.3.3 0 1 0-.6 0zM19.2 4.5a.3.3 0 1 0 .6 0a.3.3 0 1 0-.6 0zM20.2 4.5a.3.3 0 1 0 .6 0a.3.3 0 1 0-.6 0zM21.2 4.5a.3.3 0 1 0 .6 0a.3.3 0 1 0-.6 0zM2.2 5.5a.3.3 0 1 0 .6 0a.3.3 0 1 0-.6 0zM3.2 5.5a.3.3 0 1 0 .6 0a.3.3 0 1 0-.6 0zM4.2 5.5a.3.3 0 1 0 .6 0a.3.3 0 1 0-.6 0zM20.2 5.5a.3.3 0 1 0 .6 0a.3.3 0 1 0-.6 0zM21.2 5.5a.3.3 0 1 0 .6 0a.3.3 0 1 0-.6 0zM22.2 5.5a.3.3 0 1 0 .6 0a.3.3 0 1 0-.6 0zM2.2 6.5a.3.3 0 1 0 .6 0a.3.3 0 1 0-.6 0zM3.2 6.5a.3.3 0 1 0 .6 0a.3.3 0 1 0-.6 0zM4.2 6.5a.3.3 0 1 0 .6 0a.3.3 0 1 0-.6 0zM20.2 6.5a.3.3 0 1 0 .6 0a.3.3 0 1 0-.6 0zM21.2 6.5a.3.3 0 1 0 .6 0a.3.3 0 1 0-.6 0zM22.2 6.5a.3.3 0 1 0 .6 0a.3.3 0 1 0-.6 0zM1.2 7.5a.3.3 0 1 0 .6 0a.3.3 0 1 0-.6 0zM2.2 7.5a.3.3 0 1 0 .6 0a.3.3 0 1 0-.6 0zM3.2 7.5a.3.3 0 1 0 .6 0a.3.3 0 1 0-.6 0zM21.2 7.5a.3.3 0 1 0 .6 0a.3.3 0 1 0-.6 0zM22.2 7.5a.3.3 0 1 0 .6 0a.3.3 0 1 0-.6 0zM23.2 7.5a.3.3 0 1 0 .6 0a.3.3 0 1 0-.6 0zM1.2 8.5a.3.3 0 1 0 .6 0a.3.3 0 1 0-.6 0zM2.2 8.5a.3.3 0 1 0 .6 0a.3.3 0 1 0-.6 0zM22.2 8.5a.3.3 0 1 0 .6 0a.3.3 0 1 0-.6 0zM23.2 8.5a.3.3 0 1 0 .6 0a.3.3 0 1 0-.6 0zM1.2 9.5a.3.3 0 1 0 .6 0a.3.3 0 1 0-.6 0zM2.2 9.5a.3.3 0 1 0 .6 0a.3.3 0 1 0-.6 0zM22.2 9.5a.3.3 0 1 0 .6 0a.3.3 0 1 0-.6 0zM23.2 9.5a.3.3 0 1 0 .6 0a.3.3 0 1 0-.6 0zM0.2 10.5a.3.3 0 1 0 .6 0a.3.3 0 1 0-.6 0zM1.2 10.5a.3.3 0 1 0 .6 0a.3.3 0 1 0-.6 0zM2.2 10.5a.3.3 0 1 0 .6 0a.3.3 0 1 0-.6 0zM22.2 10.5a.3.3 0 1 0 .6 0a.3.3 0 1 0-.6 0zM23.2 10.5a.3.3 0 1 0 .6 0a.3.3 0 1 0-.6 0zM24.2 10.5a.3.3 0 1 0 .6 0a.3.3 0 1 0-.6 0zM0.2 11.5a.3.3 0 1 0 .6 0a.3.3 0 1 0-.6 0zM1.2 11.5a.3.3 0 1 0 .6 0a.3.3 0 1 0-.6 0zM2.2 11.5a.3.3 0 1 0 .6 0a.3.3 0 1 0-.6 0zM22.2 11.5a.3.3 0 1 0 .6 0a.3.3 0 1 0-.6 0zM23.2 11.5a.3.3 0 1 0 .6 0a.3.3 0 1 0-.6 0zM24.2 11.5a.3.3 0 1 0 .6 0a.3.3 0 1 0-.6 0zM0.2 12.5a.3.3 0 1 0 .6 0a.3.3 0 1 0-.6 0zM1.2 12.5a.3.3 0 1 0 .6 0a.3.3 0 1 0-.6 0zM2.2 12.5a.3.3 0 1 0 .6 0a.3.3 0 1 0-.6 0zM22.2 12.5a.3.3 0 1 0 .6 0a.3.3 0 1 0-.6 0zM23.2 12.5a.3.3 0 1 0 .6 0a.3.3 0 1 0-.6 0zM24.2 12.5a.3.3 0 1 0 .6 0a.3.3 0 1 0-.6 0zM0.2 13.5a.3.3 0 1 0 .6 0a.3.3 0 1 0-.6 0zM1.2 13.5a.3.3 0 1 0 .6 0a.3.3 0 1 0-.6 0zM2.2 13.5a.3.3 0 1 0 .6 0a.3.3 0 1 0-.6 0zM22.2 13.5a.3.3 0 1 0 .6 0a.3.3 0 1 0-.6 0zM23.2 13.5a.3.3 0 1 0 .6 0a.3.3 0 1 0-.6 0zM24.2 13.5a.3.3 0 1 0 .6 0a.3.3 0 1 0-.6 0zM0.2 14.5a.3.3 0 1 0 .6 0a.3.3 0 1 0-.6 0zM1.2 14.5a.3.3 0 1 0 .6 0a.3.3 0 1 0-.6 0zM2.2 14.5a.3.3 0 1 0 .6 0a.3.3 0 1 0-.6 0zM22.2 14.5a.3.3 0 1 0 .6 0a.3.3 0 1 0-.6 0zM23.2 14.5a.3.3 0 1 0 .6 0a.3.3 0 1 0-.6 0zM24.2 14.5a.3.3 0 1 0 .6 0a.3.3 0 1 0-.6 0zM1.2 15.5a.3.3 0 1 0 .6 0a.3.3 0 1 0-.6 0zM2.2 15.5a.3.3 0 1 0 .6 0a.3.3 0 1 0-.6 0zM22.2 15.5a.3.3 0 1 0 .6 0a.3.3 0 1 0-.6 0zM23.2 15.5a.3.3 0 1 0 .6 0a.3.3 0 1 0-.6 0zM1.2 16.5a.3.3 0 1 0 .6 0a.3.3 0 1 0-.6 0zM2.2 16.5a.3.3 0 1 0 .6 0a.3.3 0 1 0-.6 0zM22.2 16.5a.3.3 0 1 0 .6 0a.3.3 0 1 0-.6 0zM23.2 16.5a.3.3 0 1 0 .6 0a.3.3 0 1 0-.6 0zM1.2 17.5a.3.3 0 1 0 .6 0a.3.3 0 1 0-.6 0zM2.2 17.5a.3.3 0 1 0 .6 0a.3.3 0 1 0-.6 0zM3.2 17.5a.3.3 0 1 0 .6 0a.3.3 0 1 0-.6 0zM21.2 17.5a.3.3 0 1 0 .6 0a.3.3 0 1 0-.6 0zM22.2 17.5a.3.3 0 1 0 .6 0a.3.3 0 1 0-.6 0zM23.2 17.5a.3.3 0 1 0 .6 0a.3.3 0 1 0-.6 0zM2.2 18.5a.3.3 0 1 0 .6 0a.3.3 0 1 0-.6 0zM3.2 18.5a.3.3 0 1 0 .6 0a.3.3 0 1 0-.6 0zM4.2 18.5a.3.3 0 1 0 .6 0a.3.3 0 1 0-.6 0zM20.2 18.5a.3.3 0 1 0 .6 0a.3.3 0 1 0-.6 0zM21.2 18.5a.3.3 0 1 0 .6 0a.3.3 0 1 0-.6 0zM22.2 18.5a.3.3 0 1 0 .6 0a.3.3 0 1 0-.6 0zM2.2 19.5a.3.3 0 1 0 .6 0a.3.3 0 1 0-.6 0zM3.2 19.5a.3.3 0 1 0 .6 0a.3.3 0 1 0-.6 0zM4.2 19.5a.3.3 0 1 0 .6 0a.3.3 0 1 0-.6 0zM20.2 19.5a.3.3 0 1 0 .6 0a.3.3 0 1 0-.6 0zM21.2 19.5a.3.3 0 1 0 .6 0a.3.3 0 1 0-.6 0zM22.2 19.5a.3.3 0 1 0 .6 0a.3.3 0 1 0-.6 0zM3.2 20.5a.3.3 0 1 0 .6 0a.3.3 0 1 0-.6 0zM4.2 20.5a.3.3 0 1 0 .6 0a.3.3 0 1 0-.6 0zM5.2 20.5a.3.3 0 1 0 .6 0a.3.3 0 1 0-.6 0zM6.2 20.5a.3.3 0 1 0 .6 0a.3.3 0 1 0-.6 0zM18.2 20.5a.3.3 0 1 0 .6 0a.3.3 0 1 0-.6 0zM19.2 20.5a.3.3 0 1 0 .6 0a.3.3 0 1 0-.6 0zM20.2 20.5a.3.3 0 1 0 .6 0a.3.3 0 1 0-.6 0zM21.2 20.5a.3.3 0 1 0 .6 0a.3.3 0 1 0-.6 0zM4.2 21.5a.3.3 0 1 0 .6 0a.3.3 0 1 0-.6 0zM5.2 21.5a.3.3 0 1 0 .6 0a.3.3 0 1 0-.6 0zM6.2 21.5a.3.3 0 1 0 .6 0a.3.3 0 1 0-.6 0zM7.2 21.5a.3.3 0 1 0 .6 0a.3.3 0 1 0-.6 0zM17.2 21.5a.3.3 0 1 0 .6 0a.3.3 0 1 0-.6 0zM18.2 21.5a.3.3 0 1 0 .6 0a.3.3 0 1 0-.6 0zM19.2 21.5a.3.3 0 1 0 .6 0a.3.3 0 1 0-.6 0zM20.2 21.5a.3.3 0 1 0 .6 0a.3.3 0 1 0-.6 0zM5.2 22.5a.3.3 0 1 0 .6 0a.3.3 0 1 0-.6 0zM6.2 22.5a.3.3 0 1 0 .6 0a.3.3 0 1 0-.6 0zM7.2 22.5a.3.3 0 1 0 .6 0a.3.3 0 1 0-.6 0zM8.2 22.5a.3.3 0 1 0 .6 0a.3.3 0 1 0-.6 0zM9.2 22.5a.3.3 0 1 0 .6 0a.3.3 0 1 0-.6 0zM10.2 22.5a.3.3 0 1 0 .6 0a.3.3 0 1 0-.6 0zM11.2 22.5a.3.3 0 1 0 .6 0a.3.3 0 1 0-.6 0zM12.2 22.5a.3.3 0 1 0 .6 0a.3.3 0 1 0-.6 0zM13.2 22.5a.3.3 0 1 0 .6 0a.3.3 0 1 0-.6 0zM14.2 22.5a.3.3 0 1 0 .6 0a.3.3 0 1 0-.6 0zM15.2 22.5a.3.3 0 1 0 .6 0a.3.3 0 1 0-.6 0zM16.2 22.5a.3.3 0 1 0 .6 0a.3.3 0 1 0-.6 0zM17.2 22.5a.3.3 0 1 0 .6 0a.3.3 0 1 0-.6 0zM18.2 22.5a.3.3 0 1 0 .6 0a.3.3 0 1 0-.6 0zM19.2 22.5a.3.3 0 1 0 .6 0a.3.3 0 1 0-.6 0zM7.2 23.5a.3.3 0 1 0 .6 0a.3.3 0 1 0-.6 0zM8.2 23.5a.3.3 0 1 0 .6 0a.3.3 0 1 0-.6 0zM9.2 23.5a.3.3 0 1 0 .6 0a.3.3 0 1 0-.6 0zM10.2 23.5a.3.3 0 1 0 .6 0a.3.3 0 1 0-.6 0zM11.2 23.5a.3.3 0 1 0 .6 0a.3.3 0 1 0-.6 0zM12.2 23.5a.3.3 0 1 0 .6 0a.3.3 0 1 0-.6 0zM13.2 23.5a.3.3 0 1 0 .6 0a.3.3 0 1 0-.6 0zM14.2 23.5a.3.3 0 1 0 .6 0a.3.3 0 1 0-.6 0zM15.2 23.5a.3.3 0 1 0 .6 0a.3.3 0 1 0-.6 0zM16.2 23.5a.3.3 0 1 0 .6 0a.3.3 0 1 0-.6 0zM17.2 23.5a.3.3 0 1 0 .6 0a.3.3 0 1 0-.6 0zM10.2 24.5a.3.3 0 1 0 .6 0a.3.3 0 1 0-.6 0zM11.2 24.5a.3.3 0 1 0 .6 0a.3.3 0 1 0-.6 0zM12.2 24.5a.3.3 0 1 0 .6 0a.3.3 0 1 0-.6 0zM13.2 24.5a.3.3 0 1 0 .6 0a.3.3 0 1 0-.6 0zM14.2 24.5a.3.3 0 1 0 .6 0a.3.3 0 1 0-.6 0z"/><path fill="#22e0e0" d="M10 4h1v1h-1zM11 4h1v1h-1zM12 4h1v1h-1zM13 4h1v1h-1zM14 4h1v1h-1zM8 5h1v1h-1zM9 5h1v1h-1zM10 5h1v1h-1zM11 5h1v1h-1zM12 5h1v1h-1zM13 5h1v1h-1zM14 5h1v1h-1zM15 5h1v1h-1zM16 5h1v1h-1zM7 6h1v1h-1zM8 6h1v1h-1zM9 6h1v1h-1zM10 6h1v1h-1zM11 6h1v1h-1zM12 6h1v1h-1zM13 6h1v1h-1zM14 6h1v1h-1zM15 6h1v1h-1zM16 6h1v1h-1zM17 6h1v1h-1zM6 7h1v1h-1zM7 7h1v1h-1zM8 7h1v1h-1zM16 7h1v1h-1zM17 7h1v1h-1zM18 7h1v1h-1zM5 8h1v1h-1zM6 8h1v1h-1zM7 8h1v1h-1zM17 8h1v1h-1zM18 8h1v1h-1zM19 8h1v1h-1zM5 9h1v1h-1zM6 9h1v1h-1zM18 9h1v1h-1zM19 9h1v1h-1zM4 10h1v1h-1zM5 10h1v1h-1zM6 10h1v1h-1zM18 10h1v1h-1zM19 10h1v1h-1zM20 10h1v1h-1zM4 11h1v1h-1zM5 11h1v1h-1zM6 11h1v1h-1zM18 11h1v1h-1zM19 11h1v1h-1zM20 11h1v1h-1zM4 12h1v1h-1zM5 12h1v1h-1zM6 12h1v1h-1zM18 12h1v1h-1zM19 12h1v1h-1zM20 12h1v1h-1zM4 13h1v1h-1zM5 13h1v1h-1zM6 13h1v1h-1zM18 13h1v1h-1zM19 13h1v1h-1zM20 13h1v1h-1zM4 14h1v1h-1zM5 14h1v1h-1zM6 14h1v1h-1zM18 14h1v1h-1zM19 14h1v1h-1zM20 14h1v1h-1zM5 15h1v1h-1zM6 15h1v1h-1zM18 15h1v1h-1zM19 15h1v1h-1zM5 16h1v1h-1zM6 16h1v1h-1zM7 16h1v1h-1zM17 16h1v1h-1zM18 16h1v1h-1zM19 16h1v1h-1zM6 17h1v1h-1zM7 17h1v1h-1zM8 17h1v1h-1zM16 17h1v1h-1zM17 17h1v1h-1zM18 17h1v1h-1zM7 18h1v1h-1zM8 18h1v1h-1zM9 18h1v1h-1zM10 18h1v1h-1zM11 18h1v1h-1zM12 18h1v1h-1zM13 18h1v1h-1zM14 18h1v1h-1zM15 18h1v1h-1zM16 18h1v1h-1zM17 18h1v1h-1zM8 19h1v1h-1zM9 19h1v1h-1zM10 19h1v1h-1zM11 19h1v1h-1zM12 19h1v1h-1zM13 19h1v1h-1zM14 19h1v1h-1zM15 19h1v1h-1zM16 19h1v1h-1zM10 20h1v1h-1zM11 20h1v1h-1zM12 20h1v1h-1zM13 20h1v1h-1zM14 20h1v1h-1z"/><path fill="rgb(78,230,230)" d="M10.2 4.5a.3.3 0 1 0 .6 0a.3.3 0 1 0-.6 0zM11.2 4.5a.3.3 0 1 0 .6 0a.3.3 0 1 0-.6 0zM12.2 4.5a.3.3 0 1 0 .6 0a.3.3 0 1 0-.6 0zM13.2 4.5a.3.3 0 1 0 .6 0a.3.3 0 1 0-.6 0zM14.2 4.5a.3.3 0 1 0 .6 0a.3.3 0 1 0-.6 0zM8.2 5.5a.3.3 0 1 0 .6 0a.3.3 0 1 0-.6 0zM9.2 5.5a.3.3 0 1 0 .6 0a.3.3 0 1 0-.6 0zM10.2 5.5a.3.3 0 1 0 .6 0a.3.3 0 1 0-.6 0zM11.2 5.5a.3.3 0 1 0 .6 0a.3.3 0 1 0-.6 0zM12.2 5.5a.3.3 0 1 0 .6 0a.3.3 0 1 0-.6 0zM13.2 5.5a.3.3 0 1 0 .6 0a.3.3 0 1 0-.6 0zM14.2 5.5a.3.3 0 1 0 .6 0a.3.3 0 1 0-.6 0zM15.2 5.5a.3.3 0 1 0 .6 0a.3.3 0 1 0-.6 0zM16.2 5.5a.3.3 0 1 0 .6 0a.3.3 0 1 0-.6 0zM7.2 6.5a.3.3 0 1 0 .6 0a.3.3 0 1 0-.6 0zM8.2 6.5a.3.3 0 1 0 .6 0a.3.3 0 1 0-.6 0zM9.2 6.5a.3.3 0 1 0 .6 0a.3.3 0 1 0-.6 0zM10.2 6.5a.3.3 0 1 0 .6 0a.3.3 0 1 0-.6 0zM11.2 6.5a.3.3 0 1 0 .6 0a.3.3 0 1 0-.6 0zM12.2 6.5a.3.3 0 1 0 .6 0a.3.3 0 1 0-.6 0zM13.2 6.5a.3.3 0 1 0 .6 0a.3.3 0 1 0-.6 0zM14.2 6.5a.3.3 0 1 0 .6 0a.3.3 0 1 0-.6 0zM15.2 6.5a.3.3 0 1 0 .6 0a.3.3 0 1 0-.6 0zM16.2 6.5a.3.3 0 1 0 .6 0a.3.3 0 1 0-.6 0zM17.2 6.5a.3.3 0 1 0 .6 0a.3.3 0 1 0-.6 0zM6.2 7.5a.3.3 0 1 0 .6 0a.3.3 0 1 0-.6 0zM7.2 7.5a.3.3 0 1 0 .6 0a.3.3 0 1 0-.6 0zM8.2 7.5a.3.3 0 1 0 .6 0a.3.3 0 1 0-.6 0zM16.2 7.5a.3.3 0 1 0 .6 0a.3.3 0 1 0-.6 0zM17.2 7.5a.3.3 0 1 0 .6 0a.3.3 0 1 0-.6 0zM18.2 7.5a.3.3 0 1 0 .6 0a.3.3 0 1 0-.6 0zM5.2 8.5a.3.3 0 1 0 .6 0a.3.3 0 1 0-.6 0zM6.2 8.5a.3.3 0 1 0 .6 0a.3.3 0 1 0-.6 0zM7.2 8.5a.3.3 0 1 0 .6 0a.3.3 0 1 0-.6 0zM17.2 8.5a.3.3 0 1 0 .6 0a.3.3 0 1 0-.6 0zM18.2 8.5a.3.3 0 1 0 .6 0a.3.3 0 1 0-.6 0zM19.2 8.5a.3.3 0 1 0 .6 0a.3.3 0 1 0-.6 0zM5.2 9.5a.3.3 0 1 0 .6 0a.3.3 0 1 0-.6 0zM6.2 9.5a.3.3 0 1 0 .6 0a.3.3 0 1 0-.6 0zM18.2 9.5a.3.3 0 1 0 .6 0a.3.3 0 1 0-.6 0zM19.2 9.5a.3.3 0 1 0 .6 0a.3.3 0 1 0-.6 0zM4.2 10.5a.3.3 0 1 0 .6 0a.3.3 0 1 0-.6 0zM5.2 10.5a.3.3 0 1 0 .6 0a.3.3 0 1 0-.6 0zM6.2 10.5a.3.3 0 1 0 .6 0a.3.3 0 1 0-.6 0zM18.2 10.5a.3.3 0 1 0 .6 0a.3.3 0 1 0-.6 0zM19.2 10.5a.3.3 0 1 0 .6 0a.3.3 0 1 0-.6 0zM20.2 10.5a.3.3 0 1 0 .6 0a.3.3 0 1 0-.6 0zM4.2 11.5a.3.3 0 1 0 .6 0a.3.3 0 1 0-.6 0zM5.2 11.5a.3.3 0 1 0 .6 0a.3.3 0 1 0-.6 0zM6.2 11.5a.3.3 0 1 0 .6 0a.3.3 0 1 0-.6 0zM18.2 11.5a.3.3 0 1 0 .6 0a.3.3 0 1 0-.6 0zM19.2 11.5a.3.3 0 1 0 .6 0a.3.3 0 1 0-.6 0zM20.2 11.5a.3.3 0 1 0 .6 0a.3.3 0 1 0-.6 0zM4.2 12.5a.3.3 0 1 0 .6 0a.3.3 0 1 0-.6 0zM5.2 12.5a.3.3 0 1 0 .6 0a.3.3 0 1 0-.6 0zM6.2 12.5a.3.3 0 1 0 .6 0a.3.3 0 1 0-.6 0zM18.2 12.5a.3.3 0 1 0 .6 0a.3.3 0 1 0-.6 0zM19.2 12.5a.3.3 0 1 0 .6 0a.3.3 0 1 0-.6 0zM20.2 12.5a.3.3 0 1 0 .6 0a.3.3 0 1 0-.6 0zM4.2 13.5a.3.3 0 1 0 .6 0a.3.3 0 1 0-.6 0zM5.2 13.5a.3.3 0 1 0 .6 0a.3.3 0 1 0-.6 0zM6.2 13.5a.3.3 0 1 0 .6 0a.3.3 0 1 0-.6 0zM18.2 13.5a.3.3 0 1 0 .6 0a.3.3 0 1 0-.6 0zM19.2 13.5a.3.3 0 1 0 .6 0a.3.3 0 1 0-.6 0zM20.2 13.5a.3.3 0 1 0 .6 0a.3.3 0 1 0-.6 0zM4.2 14.5a.3.3 0 1 0 .6 0a.3.3 0 1 0-.6 0zM5.2 14.5a.3.3 0 1 0 .6 0a.3.3 0 1 0-.6 0zM6.2 14.5a.3.3 0 1 0 .6 0a.3.3 0 1 0-.6 0zM18.2 14.5a.3.3 0 1 0 .6 0a.3.3 0 1 0-.6 0zM19.2 14.5a.3.3 0 1 0 .6 0a.3.3 0 1 0-.6 0zM20.2 14.5a.3.3 0 1 0 .6 0a.3.3 0 1 0-.6 0zM5.2 15.5a.3.3 0 1 0 .6 0a.3.3 0 1 0-.6 0zM6.2 15.5a.3.3 0 1 0 .6 0a.3.3 0 1 0-.6 0zM18.2 15.5a.3.3 0 1 0 .6 0a.3.3 0 1 0-.6 0zM19.2 15.5a.3.3 0 1 0 .6 0a.3.3 0 1 0-.6 0zM5.2 16.5a.3.3 0 1 0 .6 0a.3.3 0 1 0-.6 0zM6.2 16.5a.3.3 0 1 0 .6 0a.3.3 0 1 0-.6 0zM7.2 16.5a.3.3 0 1 0 .6 0a.3.3 0 1 0-.6 0zM17.2 16.5a.3.3 0 1 0 .6 0a.3.3 0 1 0-.6 0zM18.2 16.5a.3.3 0 1 0 .6 0a.3.3 0 1 0-.6 0zM19.2 16.5a.3.3 0 1 0 .6 0a.3.3 0 1 0-.6 0zM6.2 17.5a.3.3 0 1 0 .6 0a.3.3 0 1 0-.6 0zM7.2 17.5a.3.3 0 1 0 .6 0a.3.3 0 1 0-.6 0zM8.2 17.5a.3.3 0 1 0 .6 0a.3.3 0 1 0-.6 0zM16.2 17.5a.3.3 0 1 0 .6 0a.3.3 0 1 0-.6 0zM17.2 17.5a.3.3 0 1 0 .6 0a.3.3 0 1 0-.6 0zM18.2 17.5a.3.3 0 1 0 .6 0a.3.3 0 1 0-.6 0zM7.2 18.5a.3.3 0 1 0 .6 0a.3.3 0 1 0-.6 0zM8.2 18.5a.3.3 0 1 0 .6 0a.3.3 0 1 0-.6 0zM9.2 18.5a.3.3 0 1 0 .6 0a.3.3 0 1 0-.6 0zM10.2 18.5a.3.3 0 1 0 .6 0a.3.3 0 1 0-.6 0zM11.2 18.5a.3.3 0 1 0 .6 0a.3.3 0 1 0-.6 0zM12.2 18.5a.3.3 0 1 0 .6 0a.3.3 0 1 0-.6 0zM13.2 18.5a.3.3 0 1 0 .6 0a.3.3 0 1 0-.6 0zM14.2 18.5a.3.3 0 1 0 .6 0a.3.3 0 1 0-.6 0zM15.2 18.5a.3.3 0 1 0 .6 0a.3.3 0 1 0-.6 0zM16.2 18.5a.3.3 0 1 0 .6 0a.3.3 0 1 0-.6 0zM17.2 18.5a.3.3 0 1 0 .6 0a.3.3 0 1 0-.6 0zM8.2 19.5a.3.3 0 1 0 .6 0a.3.3 0 1 0-.6 0zM9.2 19.5a.3.3 0 1 0 .6 0a.3.3 0 1 0-.6 0zM10.2 19.5a.3.3 0 1 0 .6 0a.3.3 0 1 0-.6 0zM11.2 19.5a.3.3 0 1 0 .6 0a.3.3 0 1 0-.6 0zM12.2 19.5a.3.3 0 1 0 .6 0a.3.3 0 1 0-.6 0zM13.2 19.5a.3.3 0 1 0 .6 0a.3.3 0 1 0-.6 0zM14.2 19.5a.3.3 0 1 0 .6 0a.3.3 0 1 0-.6 0zM15.2 19.5a.3.3 0 1 0 .6 0a.3.3 0 1 0-.6 0zM16.2 19.5a.3.3 0 1 0 .6 0a.3.3 0 1 0-.6 0zM10.2 20.5a.3.3 0 1 0 .6 0a.3.3 0 1 0-.6 0zM11.2 20.5a.3.3 0 1 0 .6 0a.3.3 0 1 0-.6 0zM12.2 20.5a.3.3 0 1 0 .6 0a.3.3 0 1 0-.6 0zM13.2 20.5a.3.3 0 1 0 .6 0a.3.3 0 1 0-.6 0zM14.2 20.5a.3.3 0 1 0 .6 0a.3.3 0 1 0-.6 0z"/><path fill="#b4ff39" d="M10 8h1v1h-1zM11 8h1v1h-1zM12 8h1v1h-1zM13 8h1v1h-1zM14 8h1v1h-1zM9 9h1v1h-1zM10 9h1v1h-1zM11 9h1v1h-1zM12 9h1v1h-1zM13 9h1v1h-1zM14 9h1v1h-1zM15 9h1v1h-1zM8 10h1v1h-1zM9 10h1v1h-1zM10 10h1v1h-1zM14 10h1v1h-1zM15 10h1v1h-1zM16 10h1v1h-1zM8 11h1v1h-1zM9 11h1v1h-1zM15 11h1v1h-1zM16 11h1v1h-1zM8 12h1v1h-1zM9 12h1v1h-1zM15 12h1v1h-1zM16 12h1v1h-1zM8 13h1v1h-1zM9 13h1v1h-1zM15 13h1v1h-1zM16 13h1v1h-1zM8 14h1v1h-1zM9 14h1v1h-1zM10 14h1v1h-1zM14 14h1v1h-1zM15 14h1v1h-1zM16 14h1v1h-1zM9 15h1v1h-1zM10 15h1v1h-1zM11 15h1v1h-1zM12 15h1v1h-1zM13 15h1v1h-1zM14 15h1v1h-1zM15 15h1v1h-1zM10 16h1v1h-1zM11 16h1v1h-1zM12 16h1v1h-1zM13 16h1v1h-1zM14 16h1v1h-1z"/><path fill="rgb(195,255,97)" d="M10.2 8.5a.3.3 0 1 0 .6 0a.3.3 0 1 0-.6 0zM11.2 8.5a.3.3 0 1 0 .6 0a.3.3 0 1 0-.6 0zM12.2 8.5a.3.3 0 1 0 .6 0a.3.3 0 1 0-.6 0zM13.2 8.5a.3.3 0 1 0 .6 0a.3.3 0 1 0-.6 0zM14.2 8.5a.3.3 0 1 0 .6 0a.3.3 0 1 0-.6 0zM9.2 9.5a.3.3 0 1 0 .6 0a.3.3 0 1 0-.6 0zM10.2 9.5a.3.3 0 1 0 .6 0a.3.3 0 1 0-.6 0zM11.2 9.5a.3.3 0 1 0 .6 0a.3.3 0 1 0-.6 0zM12.2 9.5a.3.3 0 1 0 .6 0a.3.3 0 1 0-.6 0zM13.2 9.5a.3.3 0 1 0 .6 0a.3.3 0 1 0-.6 0zM14.2 9.5a.3.3 0 1 0 .6 0a.3.3 0 1 0-.6 0zM15.2 9.5a.3.3 0 1 0 .6 0a.3.3 0 1 0-.6 0zM8.2 10.5a.3.3 0 1 0 .6 0a.3.3 0 1 0-.6 0zM9.2 10.5a.3.3 0 1 0 .6 0a.3.3 0 1 0-.6 0zM10.2 10.5a.3.3 0 1 0 .6 0a.3.3 0 1 0-.6 0zM14.2 10.5a.3.3 0 1 0 .6 0a.3.3 0 1 0-.6 0zM15.2 10.5a.3.3 0 1 0 .6 0a.3.3 0 1 0-.6 0zM16.2 10.5a.3.3 0 1 0 .6 0a.3.3 0 1 0-.6 0zM8.2 11.5a.3.3 0 1 0 .6 0a.3.3 0 1 0-.6 0zM9.2 11.5a.3.3 0 1 0 .6 0a.3.3 0 1 0-.6 0zM15.2 11.5a.3.3 0 1 0 .6 0a.3.3 0 1 0-.6 0zM16.2 11.5a.3.3 0 1 0 .6 0a.3.3 0 1 0-.6 0zM8.2 12.5a.3.3 0 1 0 .6 0a.3.3 0 1 0-.6 0zM9.2 12.5a.3.3 0 1 0 .6 0a.3.3 0 1 0-.6 0zM15.2 12.5a.3.3 0 1 0 .6 0a.3.3 0 1 0-.6 0zM16.2 12.5a.3.3 0 1 0 .6 0a.3.3 0 1 0-.6 0zM8.2 13.5a.3.3 0 1 0 .6 0a.3.3 0 1 0-.6 0zM9.2 13.5a.3.3 0 1 0 .6 0a.3.3 0 1 0-.6 0zM15.2 13.5a.3.3 0 1 0 .6 0a.3.3 0 1 0-.6 0zM16.2 13.5a.3.3 0 1 0 .6 0a.3.3 0 1 0-.6 0zM8.2 14.5a.3.3 0 1 0 .6 0a.3.3 0 1 0-.6 0zM9.2 14.5a.3.3 0 1 0 .6 0a.3.3 0 1 0-.6 0zM10.2 14.5a.3.3 0 1 0 .6 0a.3.3 0 1 0-.6 0zM14.2 14.5a.3.3 0 1 0 .6 0a.3.3 0 1 0-.6 0zM15.2 14.5a.3.3 0 1 0 .6 0a.3.3 0 1 0-.6 0zM16.2 14.5a.3.3 0 1 0 .6 0a.3.3 0 1 0-.6 0zM9.2 15.5a.3.3 0 1 0 .6 0a.3.3 0 1 0-.6 0zM10.2 15.5a.3.3 0 1 0 .6 0a.3.3 0 1 0-.6 0zM11.2 15.5a.3.3 0 1 0 .6 0a.3.3 0 1 0-.6 0zM12.2 15.5a.3.3 0 1 0 .6 0a.3.3 0 1 0-.6 0zM13.2 15.5a.3.3 0 1 0 .6 0a.3.3 0 1 0-.6 0zM14.2 15.5a.3.3 0 1 0 .6 0a.3.3 0 1 0-.6 0zM15.2 15.5a.3.3 0 1 0 .6 0a.3.3 0 1 0-.6 0zM10.2 16.5a.3.3 0 1 0 .6 0a.3.3 0 1 0-.6 0zM11.2 16.5a.3.3 0 1 0 .6 0a.3.3 0 1 0-.6 0zM12.2 16.5a.3.3 0 1 0 .6 0a.3.3 0 1 0-.6 0zM13.2 16.5a.3.3 0 1 0 .6 0a.3.3 0 1 0-.6 0zM14.2 16.5a.3.3 0 1 0 .6 0a.3.3 0 1 0-.6 0z"/></svg>
